<svg width="320" height="132" viewBox="0 0 320 132" fill="none" xmlns="http://www.w3.org/2000/svg" role="img" aria-labelledby="title desc">
  <title id="title">Korea AEO 인증 마크</title>
  <desc id="desc">Korea AEO certification mark</desc>
  <rect width="320" height="132" fill="white"/>
  <path d="M237.6 24.6C259.8 19.1 282.6 19.2 300.2 24.7C303.1 25.6 303.4 29.7 300.7 31.1L266.5 49.1C244.6 38.6 207.9 36.3 168.1 45.3C107.2 59.1 58.9 91.5 43.8 123.2C42.7 125.5 39.4 123.6 40.4 121.2C54.2 87.6 115.2 54.9 194.8 34.3C209.4 30.5 223.8 28 237.6 24.6Z" fill="#ED3B22"/>
  <path d="M45.2 113.7C63.4 88.8 111.2 61.6 170.1 47.9L160.9 61.5C107.5 74.9 64.4 95.4 45.2 113.7Z" fill="#009FE3"/>
  <text x="50" y="31" fill="#004B9B" font-family="Arial, Helvetica, sans-serif" font-size="18" font-style="italic" font-weight="800" letter-spacing="-0.2">KOREA</text>
  <text x="47" y="99" fill="#004B9B" font-family="Arial Black, Arial, Helvetica, sans-serif" font-size="70" font-style="italic" font-weight="900" letter-spacing="-6">AEO</text>
</svg>
