<svg width="1920" height="1080" viewBox="0 0 1920 1080" fill="none" xmlns="http://www.w3.org/2000/svg">
  <rect width="1920" height="1080" fill="url(#bg)"/>
  <rect width="1920" height="1080" fill="url(#grid)" opacity="0.12"/>
  <circle cx="1490" cy="248" r="270" fill="url(#glow)" opacity="0.72"/>
  <circle cx="310" cy="200" r="180" fill="#B7D8FF" opacity="0.2"/>
  <path d="M0 808C164 734 342 715 507 742C655 767 782 840 934 850C1096 860 1243 790 1400 746C1578 695 1741 705 1920 760V1080H0V808Z" fill="url(#ground)"/>
  <g opacity="0.95">
    <rect x="122" y="208" width="228" height="548" rx="8" fill="url(#towerA)"/>
    <rect x="155" y="244" width="30" height="512" fill="#193A66" opacity="0.68"/>
    <rect x="206" y="244" width="30" height="512" fill="#193A66" opacity="0.38"/>
    <rect x="257" y="244" width="30" height="512" fill="#193A66" opacity="0.58"/>
    <rect x="308" y="244" width="22" height="512" fill="#193A66" opacity="0.38"/>
  </g>
  <g opacity="0.92">
    <rect x="362" y="152" width="286" height="640" rx="8" fill="url(#towerB)"/>
    <rect x="404" y="196" width="34" height="596" fill="#214C86" opacity="0.62"/>
    <rect x="458" y="196" width="34" height="596" fill="#214C86" opacity="0.44"/>
    <rect x="512" y="196" width="34" height="596" fill="#214C86" opacity="0.62"/>
    <rect x="566" y="196" width="34" height="596" fill="#214C86" opacity="0.44"/>
  </g>
  <g opacity="0.9">
    <rect x="1340" y="120" width="338" height="706" rx="12" fill="url(#towerC)"/>
    <path d="M1388 174H1628" stroke="#EAF6FF" stroke-width="8" stroke-linecap="round" opacity="0.9"/>
    <path d="M1388 236H1628" stroke="#D7EEFF" stroke-width="8" stroke-linecap="round" opacity="0.76"/>
    <path d="M1388 298H1628" stroke="#D7EEFF" stroke-width="8" stroke-linecap="round" opacity="0.76"/>
    <path d="M1388 360H1628" stroke="#D7EEFF" stroke-width="8" stroke-linecap="round" opacity="0.76"/>
    <path d="M1388 422H1628" stroke="#D7EEFF" stroke-width="8" stroke-linecap="round" opacity="0.76"/>
    <path d="M1388 484H1628" stroke="#D7EEFF" stroke-width="8" stroke-linecap="round" opacity="0.76"/>
    <path d="M1388 546H1628" stroke="#D7EEFF" stroke-width="8" stroke-linecap="round" opacity="0.76"/>
    <path d="M1388 608H1628" stroke="#D7EEFF" stroke-width="8" stroke-linecap="round" opacity="0.76"/>
    <path d="M1388 670H1628" stroke="#D7EEFF" stroke-width="8" stroke-linecap="round" opacity="0.76"/>
  </g>
  <g opacity="0.38">
    <rect x="940" y="298" width="140" height="480" rx="6" fill="#5D82B3"/>
    <rect x="1088" y="224" width="164" height="554" rx="6" fill="#6C93C4"/>
    <rect x="1266" y="276" width="64" height="502" rx="6" fill="#4B709D"/>
  </g>
  <g opacity="0.72">
    <path d="M118 874H1698" stroke="#DFF2FF" stroke-width="2"/>
    <path d="M118 930H1698" stroke="#DFF2FF" stroke-width="2" opacity="0.55"/>
  </g>
  <defs>
    <linearGradient id="bg" x1="960" y1="0" x2="960" y2="1080" gradientUnits="userSpaceOnUse">
      <stop stop-color="#E6F4FF"/>
      <stop offset="0.48" stop-color="#B0D1F0"/>
      <stop offset="1" stop-color="#4B6895"/>
    </linearGradient>
    <linearGradient id="ground" x1="960" y1="742" x2="960" y2="1080" gradientUnits="userSpaceOnUse">
      <stop stop-color="#6F8EB6" stop-opacity="0.1"/>
      <stop offset="1" stop-color="#122746" stop-opacity="0.74"/>
    </linearGradient>
    <radialGradient id="glow" cx="0" cy="0" r="1" gradientUnits="userSpaceOnUse" gradientTransform="translate(1490 248) rotate(90) scale(270)">
      <stop stop-color="white"/>
      <stop offset="1" stop-color="white" stop-opacity="0"/>
    </radialGradient>
    <linearGradient id="towerA" x1="236" y1="208" x2="236" y2="756" gradientUnits="userSpaceOnUse">
      <stop stop-color="#DAF1FF"/>
      <stop offset="1" stop-color="#3E6797"/>
    </linearGradient>
    <linearGradient id="towerB" x1="505" y1="152" x2="505" y2="792" gradientUnits="userSpaceOnUse">
      <stop stop-color="#F0F9FF"/>
      <stop offset="1" stop-color="#2D5685"/>
    </linearGradient>
    <linearGradient id="towerC" x1="1509" y1="120" x2="1509" y2="826" gradientUnits="userSpaceOnUse">
      <stop stop-color="#EAF8FF"/>
      <stop offset="1" stop-color="#355A84"/>
    </linearGradient>
    <pattern id="grid" width="80" height="80" patternUnits="userSpaceOnUse">
      <path d="M80 0H0V80" stroke="#1B436F" stroke-opacity="0.5" stroke-width="1"/>
    </pattern>
  </defs>
</svg>
