<svg width="1920" height="1080" viewBox="0 0 1920 1080" fill="none" xmlns="http://www.w3.org/2000/svg">
  <rect width="1920" height="1080" fill="url(#sky)"/>
  <rect y="662" width="1920" height="418" fill="url(#sea)"/>
  <rect y="782" width="1920" height="298" fill="url(#dock)"/>
  <circle cx="1500" cy="174" r="132" fill="#FFF0C8" opacity="0.86"/>
  <g opacity="0.9">
    <path d="M218 336L360 336L404 760L260 760L218 336Z" fill="#20476F"/>
    <path d="M336 214H386V336H336V214Z" fill="#173651"/>
    <path d="M360 214H690" stroke="#173651" stroke-width="18" stroke-linecap="round"/>
    <path d="M604 236L742 766" stroke="#173651" stroke-width="20" stroke-linecap="round"/>
  </g>
  <g opacity="0.94">
    <path d="M500 560H1388L1490 652H604L500 560Z" fill="#16385C"/>
    <rect x="574" y="472" width="786" height="90" rx="10" fill="#295784"/>
    <g opacity="0.98">
      <rect x="626" y="494" width="118" height="48" fill="#D46B42"/>
      <rect x="750" y="494" width="118" height="48" fill="#E3A04D"/>
      <rect x="874" y="494" width="118" height="48" fill="#5D93C2"/>
      <rect x="998" y="494" width="118" height="48" fill="#D55348"/>
      <rect x="1122" y="494" width="118" height="48" fill="#E2C15B"/>
    </g>
  </g>
  <defs>
    <linearGradient id="sky" x1="960" y1="0" x2="960" y2="662" gradientUnits="userSpaceOnUse">
      <stop stop-color="#E0F0FF"/>
      <stop offset="1" stop-color="#8CB9E1"/>
    </linearGradient>
    <linearGradient id="sea" x1="960" y1="662" x2="960" y2="1080" gradientUnits="userSpaceOnUse">
      <stop stop-color="#417AAE"/>
      <stop offset="1" stop-color="#102A45"/>
    </linearGradient>
    <linearGradient id="dock" x1="960" y1="782" x2="960" y2="1080" gradientUnits="userSpaceOnUse">
      <stop stop-color="#C8A172"/>
      <stop offset="1" stop-color="#67482B"/>
    </linearGradient>
  </defs>
</svg>
