<svg width="1920" height="1080" viewBox="0 0 1920 1080" fill="none" xmlns="http://www.w3.org/2000/svg">
  <rect width="1920" height="1080" fill="url(#bg)"/>
  <rect x="206" y="136" width="1508" height="808" rx="36" fill="url(#panel)"/>
  <rect x="286" y="216" width="1348" height="648" rx="28" fill="#0C1730"/>
  <rect x="680" y="286" width="560" height="508" rx="30" fill="#142447" stroke="#60DAFF" stroke-width="8"/>
  <rect x="770" y="372" width="380" height="336" rx="22" fill="#0B1530" stroke="#6EFFD8" stroke-width="6"/>
  <g opacity="0.9">
    <path d="M960 286V176" stroke="#60DAFF" stroke-width="10" stroke-linecap="round"/>
    <path d="M960 904V794" stroke="#60DAFF" stroke-width="10" stroke-linecap="round"/>
    <path d="M680 540H548" stroke="#60DAFF" stroke-width="10" stroke-linecap="round"/>
    <path d="M1372 540H1240" stroke="#60DAFF" stroke-width="10" stroke-linecap="round"/>
    <circle cx="960" cy="150" r="26" fill="#0E1C38" stroke="#60DAFF" stroke-width="8"/>
    <circle cx="960" cy="930" r="26" fill="#0E1C38" stroke="#60DAFF" stroke-width="8"/>
    <circle cx="522" cy="540" r="26" fill="#0E1C38" stroke="#60DAFF" stroke-width="8"/>
    <circle cx="1398" cy="540" r="26" fill="#0E1C38" stroke="#60DAFF" stroke-width="8"/>
  </g>
  <g opacity="0.85">
    <path d="M820 436H1100" stroke="#6EFFD8" stroke-width="4" stroke-linecap="round"/>
    <path d="M820 504H1100" stroke="#60DAFF" stroke-width="4" stroke-linecap="round"/>
    <path d="M820 572H1100" stroke="#6EFFD8" stroke-width="4" stroke-linecap="round"/>
    <path d="M820 640H1100" stroke="#60DAFF" stroke-width="4" stroke-linecap="round"/>
  </g>
  <defs>
    <linearGradient id="bg" x1="0" y1="0" x2="1920" y2="1080" gradientUnits="userSpaceOnUse">
      <stop stop-color="#09111F"/>
      <stop offset="0.55" stop-color="#13264A"/>
      <stop offset="1" stop-color="#1C1856"/>
    </linearGradient>
    <linearGradient id="panel" x1="960" y1="136" x2="960" y2="944" gradientUnits="userSpaceOnUse">
      <stop stop-color="#20345F" stop-opacity="0.9"/>
      <stop offset="1" stop-color="#091120" stop-opacity="0.96"/>
    </linearGradient>
  </defs>
</svg>
