<svg width="1920" height="1080" viewBox="0 0 1920 1080" fill="none" xmlns="http://www.w3.org/2000/svg">
  <rect width="1920" height="1080" fill="url(#bg)"/>
  <rect width="1920" height="1080" fill="url(#mesh)" opacity="0.18"/>
  <circle cx="1470" cy="236" r="220" fill="#B7FFF4" opacity="0.18"/>
  <circle cx="382" cy="866" r="268" fill="#6A53D7" opacity="0.16"/>
  <g opacity="0.92">
    <rect x="230" y="280" width="1460" height="482" rx="34" fill="url(#panel)"/>
    <rect x="288" y="338" width="554" height="366" rx="24" fill="#0F2140"/>
    <rect x="880" y="338" width="752" height="366" rx="24" fill="#112747"/>
  </g>
  <g opacity="0.96">
    <rect x="1050" y="430" width="404" height="182" rx="20" fill="#0A1630" stroke="#63D2FF" stroke-width="6"/>
    <rect x="1110" y="362" width="284" height="54" rx="16" fill="#0C1D36" stroke="#5CF0D8" stroke-width="4"/>
    <rect x="1194" y="298" width="116" height="44" rx="14" fill="#5CF0D8" opacity="0.72"/>
    <g opacity="0.92">
      <path d="M1096 522H1004" stroke="#63D2FF" stroke-width="8" stroke-linecap="round"/>
      <circle cx="986" cy="522" r="18" fill="#0C1D36" stroke="#63D2FF" stroke-width="6"/>
      <path d="M1458 522H1550" stroke="#63D2FF" stroke-width="8" stroke-linecap="round"/>
      <circle cx="1568" cy="522" r="18" fill="#0C1D36" stroke="#63D2FF" stroke-width="6"/>
      <path d="M1252 624V718" stroke="#63D2FF" stroke-width="8" stroke-linecap="round"/>
      <circle cx="1252" cy="740" r="18" fill="#0C1D36" stroke="#63D2FF" stroke-width="6"/>
      <path d="M1252 318V224" stroke="#63D2FF" stroke-width="8" stroke-linecap="round"/>
      <circle cx="1252" cy="202" r="18" fill="#0C1D36" stroke="#63D2FF" stroke-width="6"/>
    </g>
    <g opacity="0.8">
      <path d="M1126 472H1378" stroke="#5CF0D8" stroke-width="4" stroke-linecap="round"/>
      <path d="M1126 522H1378" stroke="#63D2FF" stroke-width="4" stroke-linecap="round"/>
      <path d="M1126 572H1378" stroke="#5CF0D8" stroke-width="4" stroke-linecap="round"/>
    </g>
  </g>
  <g opacity="0.92">
    <circle cx="562" cy="520" r="132" fill="#09152D" stroke="#7A68FF" stroke-width="8"/>
    <circle cx="562" cy="520" r="72" fill="#112343" stroke="#5CF0D8" stroke-width="6"/>
    <path d="M562 388V324" stroke="#7A68FF" stroke-width="8" stroke-linecap="round"/>
    <path d="M562 652V716" stroke="#7A68FF" stroke-width="8" stroke-linecap="round"/>
    <path d="M430 520H366" stroke="#7A68FF" stroke-width="8" stroke-linecap="round"/>
    <path d="M758 520H694" stroke="#7A68FF" stroke-width="8" stroke-linecap="round"/>
    <path d="M468 426L422 380" stroke="#7A68FF" stroke-width="8" stroke-linecap="round"/>
    <path d="M702 660L748 706" stroke="#7A68FF" stroke-width="8" stroke-linecap="round"/>
    <path d="M468 614L422 660" stroke="#7A68FF" stroke-width="8" stroke-linecap="round"/>
    <path d="M702 380L748 334" stroke="#7A68FF" stroke-width="8" stroke-linecap="round"/>
  </g>
  <defs>
    <linearGradient id="bg" x1="0" y1="0" x2="1920" y2="1080" gradientUnits="userSpaceOnUse">
      <stop stop-color="#081120"/>
      <stop offset="0.55" stop-color="#0F2142"/>
      <stop offset="1" stop-color="#20164A"/>
    </linearGradient>
    <linearGradient id="panel" x1="960" y1="280" x2="960" y2="762" gradientUnits="userSpaceOnUse">
      <stop stop-color="#20365E" stop-opacity="0.94"/>
      <stop offset="1" stop-color="#0A1225" stop-opacity="0.98"/>
    </linearGradient>
    <pattern id="mesh" width="84" height="84" patternUnits="userSpaceOnUse">
      <path d="M84 0H0V84" stroke="#63D2FF" stroke-opacity="0.6" stroke-width="1"/>
    </pattern>
  </defs>
</svg>
